<?xml version="1.0" encoding="UTF-8" standalone="no"?>
<svg
   xmlns:dc="http://purl.org/dc/elements/1.1/"
   xmlns:cc="http://creativecommons.org/ns#"
   xmlns:rdf="http://www.w3.org/1999/02/22-rdf-syntax-ns#"
   xmlns:svg="http://www.w3.org/2000/svg"
   xmlns="http://www.w3.org/2000/svg"
   id="svg8"
   version="1.1"
   viewBox="0 0 4.2333332 4.2333335"
   height="16"
   width="16">
  <defs
     id="defs2" />
  <metadata
     id="metadata5">
    <rdf:RDF>
      <cc:Work
         rdf:about="">
        <dc:format>image/svg+xml</dc:format>
        <dc:type
           rdf:resource="http://purl.org/dc/dcmitype/StillImage" />
        <dc:title></dc:title>
      </cc:Work>
    </rdf:RDF>
  </metadata>
  <g
     id="layer1">
    <path
       d="M 2.1166735,7.4241976e-6 A 2.1166666,2.1166666 0 0 0 2.0639635,5.241842e-4 2.1166666,2.1166666 0 0 0 2.0014355,0.00310798 a 2.1166666,2.1166666 0 0 0 -0.063045,0.0046509 2.1166666,2.1166666 0 0 0 -0.062528,0.0062012 2.1166666,2.1166666 0 0 0 -0.062528,0.0077515 2.1166666,2.1166666 0 0 0 -0.062013,0.0098185 2.1166666,2.1166666 0 0 0 -0.062012,0.01188557 2.1166666,2.1166666 0 0 0 -0.061495,0.01395264 2.1166666,2.1166666 0 0 0 -0.060978,0.01498616 2.1166666,2.1166666 0 0 0 -0.060461,0.01756999 2.1166666,2.1166666 0 0 0 -0.059945,0.01912028 2.1166666,2.1166666 0 0 0 -0.059428,0.0206706 2.1166666,2.1166666 0 0 0 -0.058394,0.0227376 2.1166666,2.1166666 0 0 0 -0.058394,0.0242879 2.1166666,2.1166666 0 0 0 -0.057361,0.0258382 2.1166666,2.1166666 0 0 0 -0.056327,0.0279053 2.1166666,2.1166666 0 0 0 -0.055811,0.0289388 2.1166666,2.1166666 0 0 0 -0.054777,0.0310058 2.1166666,2.1166666 0 0 0 -0.0537435,0.0330729 2.1166666,2.1166666 0 0 0 -0.05271,0.0341065 2.1166666,2.1166666 0 0 0 -0.0516764,0.0356567 2.1166666,2.1166666 0 0 0 -0.0506429,0.037207 2.1166666,2.1166666 0 0 0 -0.0496094,0.0387573 2.1166666,2.1166666 0 0 0 -0.0485758,0.0403076 2.1166666,2.1166666 0 0 0 -0.0470256,0.0418579 2.1166666,2.1166666 0 0 0 -0.045992,0.0428915 2.1166666,2.1166666 0 0 0 -0.0444417,0.0444417 2.1166666,2.1166666 0 0 0 -0.0434082,0.0454753 2.1166666,2.1166666 0 0 0 -0.0418579,0.0470256 2.1166666,2.1166666 0 0 0 -0.0403076,0.0480591 2.1166666,2.1166666 0 0 0 -0.0392741,0.0496094 2.1166666,2.1166666 0 0 0 -0.037207,0.0506429 2.1166666,2.1166666 0 0 0 -0.0361735,0.0516764 2.1166666,2.1166666 0 0 0 -0.0346232,0.0521932 2.1166666,2.1166666 0 0 0 -0.0325562,0.0537434 2.1166666,2.1166666 0 0 0 -0.0315226,0.054777 2.1166666,2.1166666 0 0 0 -0.0294556,0.055294 2.1166666,2.1166666 0 0 0 -0.0279053,0.056327 2.1166666,2.1166666 0 0 0 -0.026355,0.057361 2.1166666,2.1166666 0 0 0 -0.0248047,0.057878 2.1166666,2.1166666 0 0 0 -0.0227376,0.058911 2.1166666,2.1166666 0 0 0 -0.0211873,0.058911 2.1166666,2.1166666 0 0 0 -0.01912028,0.059945 2.1166666,2.1166666 0 0 0 -0.01756998,0.060461 2.1166666,2.1166666 0 0 0 -0.0160197,0.060978 2.1166666,2.1166666 0 0 0 -0.01395263,0.061495 2.1166666,2.1166666 0 0 0 -0.01188558,0.061495 2.1166666,2.1166666 0 0 0 -0.01033529,0.062012 2.1166666,2.1166666 0 0 0 -0.0082682,0.062528 2.1166666,2.1166666 0 0 0 -0.0067179,0.062528 2.1166666,2.1166666 0 0 0 -0.0046509,0.063045 2.1166666,2.1166666 0 0 0 -0.0025838,0.062528 2.1166666,2.1166666 0 0 0 -0.0010334958,0.063045 2.1166666,2.1166666 0 0 0 5.1676e-4,0.05271 2.1166666,2.1166666 0 0 0 0.002583796,0.062528 2.1166666,2.1166666 0 0 0 0.0046509,0.063045 2.1166666,2.1166666 0 0 0 0.0062012,0.062528 2.1166666,2.1166666 0 0 0 0.0077515,0.062528 2.1166666,2.1166666 0 0 0 0.0098185,0.062012 2.1166666,2.1166666 0 0 0 0.01188558,0.062012 2.1166666,2.1166666 0 0 0 0.01395264,0.061495 2.1166666,2.1166666 0 0 0 0.01498616,0.060978 2.1166666,2.1166666 0 0 0 0.01756999,0.060462 2.1166666,2.1166666 0 0 0 0.01912028,0.059944 2.1166666,2.1166666 0 0 0 0.0206706,0.059428 2.1166666,2.1166666 0 0 0 0.0227376,0.058395 2.1166666,2.1166666 0 0 0 0.0242879,0.058394 2.1166666,2.1166666 0 0 0 0.0258382,0.057361 2.1166666,2.1166666 0 0 0 0.0279053,0.056327 2.1166666,2.1166666 0 0 0 0.0289388,0.055811 2.1166666,2.1166666 0 0 0 0.0310059,0.054777 2.1166666,2.1166666 0 0 0 0.0330729,0.053743 2.1166666,2.1166666 0 0 0 0.0341064,0.05271 2.1166666,2.1166666 0 0 0 0.0356567,0.051676 2.1166666,2.1166666 0 0 0 0.037207,0.050643 2.1166666,2.1166666 0 0 0 0.0387573,0.049609 2.1166666,2.1166666 0 0 0 0.0403076,0.048576 2.1166666,2.1166666 0 0 0 0.0418579,0.047026 2.1166666,2.1166666 0 0 0 0.0428914,0.045992 2.1166666,2.1166666 0 0 0 0.0444417,0.044442 2.1166666,2.1166666 0 0 0 0.0454753,0.043408 2.1166666,2.1166666 0 0 0 0.0470256,0.041858 2.1166666,2.1166666 0 0 0 0.0480591,0.040308 2.1166666,2.1166666 0 0 0 0.0496094,0.039274 2.1166666,2.1166666 0 0 0 0.0506429,0.037207 2.1166666,2.1166666 0 0 0 0.0516764,0.036174 2.1166666,2.1166666 0 0 0 0.0521932,0.034623 2.1166666,2.1166666 0 0 0 0.0537435,0.032556 2.1166666,2.1166666 0 0 0 0.054777,0.031523 2.1166666,2.1166666 0 0 0 0.055294,0.029455 2.1166666,2.1166666 0 0 0 0.056327,0.027905 2.1166666,2.1166666 0 0 0 0.057361,0.026355 2.1166666,2.1166666 0 0 0 0.057878,0.024805 2.1166666,2.1166666 0 0 0 0.058911,0.022738 2.1166666,2.1166666 0 0 0 0.058911,0.021187 2.1166666,2.1166666 0 0 0 0.059945,0.01912 2.1166666,2.1166666 0 0 0 0.060461,0.01757 2.1166666,2.1166666 0 0 0 0.060978,0.01602 2.1166666,2.1166666 0 0 0 0.061495,0.013953 2.1166666,2.1166666 0 0 0 0.061495,0.011886 2.1166666,2.1166666 0 0 0 0.062012,0.010335 2.1166666,2.1166666 0 0 0 0.062528,0.00827 2.1166666,2.1166666 0 0 0 0.062528,0.00672 2.1166666,2.1166666 0 0 0 0.063045,0.00465 2.1166666,2.1166666 0 0 0 0.062528,0.00258 2.1166666,2.1166666 0 0 0 0.063045,0.00103 2.1166666,2.1166666 0 0 0 0.05271,-5.167e-4 2.1166666,2.1166666 0 0 0 0.062528,-0.00258 2.1166666,2.1166666 0 0 0 0.063045,-0.00465 2.1166666,2.1166666 0 0 0 0.062528,-0.0062 2.1166666,2.1166666 0 0 0 0.062528,-0.00775 2.1166666,2.1166666 0 0 0 0.062012,-0.00982 2.1166666,2.1166666 0 0 0 0.062012,-0.011885 2.1166666,2.1166666 0 0 0 0.061495,-0.013953 2.1166666,2.1166666 0 0 0 0.060978,-0.014986 2.1166666,2.1166666 0 0 0 0.060462,-0.01757 2.1166666,2.1166666 0 0 0 0.059944,-0.01912 2.1166666,2.1166666 0 0 0 0.059428,-0.020671 2.1166666,2.1166666 0 0 0 0.058395,-0.022738 2.1166666,2.1166666 0 0 0 0.058394,-0.024288 2.1166666,2.1166666 0 0 0 0.057361,-0.025838 2.1166666,2.1166666 0 0 0 0.056327,-0.027905 2.1166666,2.1166666 0 0 0 0.055811,-0.028939 2.1166666,2.1166666 0 0 0 0.054777,-0.031006 2.1166666,2.1166666 0 0 0 0.053743,-0.033073 2.1166666,2.1166666 0 0 0 0.05271,-0.034106 2.1166666,2.1166666 0 0 0 0.051676,-0.035657 2.1166666,2.1166666 0 0 0 0.050643,-0.037207 2.1166666,2.1166666 0 0 0 0.049609,-0.038758 2.1166666,2.1166666 0 0 0 0.048576,-0.040307 2.1166666,2.1166666 0 0 0 0.047026,-0.041858 2.1166666,2.1166666 0 0 0 0.045992,-0.042892 2.1166666,2.1166666 0 0 0 0.025838,-0.025838 L 2.3812569,2.3812574 h 1.8355468 a 2.1166666,2.1166666 0 0 0 0.00155,-0.013436 2.1166666,2.1166666 0 0 0 0.00672,-0.062528 2.1166666,2.1166666 0 0 0 0.00465,-0.063045 2.1166666,2.1166666 0 0 0 0.00258,-0.062528 2.1166666,2.1166666 0 0 0 0.00103,-0.063045 2.1166666,2.1166666 0 0 0 -5.167e-4,-0.05271 2.1166666,2.1166666 0 0 0 -0.00258,-0.062528 2.1166666,2.1166666 0 0 0 -0.00465,-0.063045 2.1166666,2.1166666 0 0 0 -0.0062,-0.062528 A 2.1166666,2.1166666 0 0 0 4.211637,1.8133364 2.1166666,2.1166666 0 0 0 4.201817,1.7513244 2.1166666,2.1166666 0 0 0 4.189932,1.6893124 2.1166666,2.1166666 0 0 0 4.175979,1.6278174 2.1166666,2.1166666 0 0 0 4.160993,1.5668394 2.1166666,2.1166666 0 0 0 4.143423,1.5063784 2.1166666,2.1166666 0 0 0 4.124303,1.4464334 2.1166666,2.1166666 0 0 0 4.103632,1.3870054 2.1166666,2.1166666 0 0 0 4.080894,1.3286114 2.1166666,2.1166666 0 0 0 4.056606,1.2702174 2.1166666,2.1166666 0 0 0 4.030768,1.2128564 2.1166666,2.1166666 0 0 0 4.002863,1.1565294 2.1166666,2.1166666 0 0 0 3.973924,1.1007184 2.1166666,2.1166666 0 0 0 3.942918,1.0459414 2.1166666,2.1166666 0 0 0 3.909845,0.99219786 2.1166666,2.1166666 0 0 0 3.875739,0.93948786 2.1166666,2.1166666 0 0 0 3.8400826,0.88780853 2.1166666,2.1166666 0 0 0 3.8028755,0.83716561 2.1166666,2.1166666 0 0 0 3.7641181,0.78755624 2.1166666,2.1166666 0 0 0 3.7238106,0.73898041 2.1166666,2.1166666 0 0 0 3.6819528,0.69195485 2.1166666,2.1166666 0 0 0 3.6390612,0.6459628 2.1166666,2.1166666 0 0 0 3.5946196,0.60152108 2.1166666,2.1166666 0 0 0 3.5491441,0.55811288 2.1166666,2.1166666 0 0 0 3.5021186,0.51625498 2.1166666,2.1166666 0 0 0 3.4540597,0.47594735 2.1166666,2.1166666 0 0 0 3.4044504,0.43667326 2.1166666,2.1166666 0 0 0 3.3538073,0.39946623 2.1166666,2.1166666 0 0 0 3.302131,0.36329274 2.1166666,2.1166666 0 0 0 3.2499377,0.32866953 2.1166666,2.1166666 0 0 0 3.1961942,0.29611337 2.1166666,2.1166666 0 0 0 3.1414172,0.26459075 2.1166666,2.1166666 0 0 0 3.0861233,0.23513519 2.1166666,2.1166666 0 0 0 3.0297961,0.20722991 2.1166666,2.1166666 0 0 0 2.9724353,0.18087493 2.1166666,2.1166666 0 0 0 2.9145577,0.15607024 2.1166666,2.1166666 0 0 0 2.8556466,0.13333261 2.1166666,2.1166666 0 0 0 2.7967353,0.11214528 2.1166666,2.1166666 0 0 0 2.7367907,0.093025 2.1166666,2.1166666 0 0 0 2.6763292,0.07545501 2.1166666,2.1166666 0 0 0 2.6153511,0.05943532 2.1166666,2.1166666 0 0 0 2.5538562,0.04548268 2.1166666,2.1166666 0 0 0 2.4923612,0.0335971 2.1166666,2.1166666 0 0 0 2.4303492,0.02326181 2.1166666,2.1166666 0 0 0 2.3678212,0.01499359 2.1166666,2.1166666 0 0 0 2.3052932,0.00827569 2.1166666,2.1166666 0 0 0 2.2422482,0.00362479 2.1166666,2.1166666 0 0 0 2.1797202,0.00104099 2.1166666,2.1166666 0 0 0 2.1166752,7.4941976e-6 Z"
       style="fill:#000000;stroke:none;stroke-width:0.341143;stroke-linejoin:miter;stroke-miterlimit:4;stroke-dasharray:none;stroke-opacity:1;paint-order:markers stroke fill"
       id="path858" />
    <path
       transform="scale(0.26458333)"
       d="M 15 7.9082031 A 6.999685 6.999685 0 0 0 14.994141 7.6855469 A 6.999685 6.999685 0 0 0 14.980469 7.4628906 A 6.999685 6.999685 0 0 0 14.958984 7.2421875 A 6.999685 6.999685 0 0 0 14.931641 7.0214844 A 6.999685 6.999685 0 0 0 14.896484 6.8007812 A 6.999685 6.999685 0 0 0 14.855469 6.5820312 A 6.999685 6.999685 0 0 0 14.806641 6.3652344 A 6.999685 6.999685 0 0 0 14.751953 6.1503906 A 6.999685 6.999685 0 0 0 14.689453 5.9355469 A 6.999685 6.999685 0 0 0 14.621094 5.7246094 A 6.999685 6.999685 0 0 0 14.544922 5.515625 A 6.999685 6.999685 0 0 0 14.462891 5.3085938 A 6.999685 6.999685 0 0 0 14.373047 5.1054688 A 6.999685 6.999685 0 0 0 14.279297 4.9042969 A 6.999685 6.999685 0 0 0 14.177734 4.7070312 A 6.999685 6.999685 0 0 0 14.068359 4.5117188 A 6.999685 6.999685 0 0 0 13.955078 4.3203125 A 6.999685 6.999685 0 0 0 13.835938 4.1328125 A 6.999685 6.999685 0 0 0 13.708984 3.9492188 A 6.999685 6.999685 0 0 0 13.578125 3.7695312 A 6.999685 6.999685 0 0 0 13.439453 3.5957031 A 6.999685 6.999685 0 0 0 13.296875 3.4238281 A 6.999685 6.999685 0 0 0 13.148438 3.2578125 A 6.999685 6.999685 0 0 0 12.996094 3.0976562 A 6.999685 6.999685 0 0 0 12.837891 2.9414062 A 6.999685 6.999685 0 0 0 12.673828 2.7910156 A 6.999685 6.999685 0 0 0 12.505859 2.6445312 A 6.999685 6.999685 0 0 0 12.333984 2.5039062 A 6.999685 6.999685 0 0 0 12.15625 2.3691406 A 6.999685 6.999685 0 0 0 11.976562 2.2402344 A 6.999685 6.999685 0 0 0 11.791016 2.1152344 A 6.999685 6.999685 0 0 0 11.601562 1.9980469 A 6.999685 6.999685 0 0 0 11.410156 1.8867188 A 6.999685 6.999685 0 0 0 11.212891 1.78125 A 6.999685 6.999685 0 0 0 11.013672 1.6835938 A 6.999685 6.999685 0 0 0 10.8125 1.5898438 A 6.999685 6.999685 0 0 0 10.607422 1.5039062 A 6.999685 6.999685 0 0 0 10.398438 1.4257812 A 6.999685 6.999685 0 0 0 10.189453 1.3515625 A 6.999685 6.999685 0 0 0 9.9765625 1.2851562 A 6.999685 6.999685 0 0 0 9.7617188 1.2265625 A 6.999685 6.999685 0 0 0 9.5449219 1.1738281 A 6.999685 6.999685 0 0 0 9.328125 1.1289062 A 6.999685 6.999685 0 0 0 9.109375 1.0898438 A 6.999685 6.999685 0 0 0 8.8886719 1.0585938 A 6.999685 6.999685 0 0 0 8.6679688 1.0332031 A 6.999685 6.999685 0 0 0 8.4453125 1.015625 A 6.999685 6.999685 0 0 0 8.2246094 1.0058594 A 6.999685 6.999685 0 0 0 8.0019531 1.0019531 A 6.999685 6.999685 0 0 0 7.9082031 1.0019531 A 6.999685 6.999685 0 0 0 7.6855469 1.0078125 A 6.999685 6.999685 0 0 0 7.4628906 1.0214844 A 6.999685 6.999685 0 0 0 7.2421875 1.0429688 A 6.999685 6.999685 0 0 0 7.0214844 1.0703125 A 6.999685 6.999685 0 0 0 6.8007812 1.1054688 A 6.999685 6.999685 0 0 0 6.5820312 1.1464844 A 6.999685 6.999685 0 0 0 6.3652344 1.1953125 A 6.999685 6.999685 0 0 0 6.1503906 1.25 A 6.999685 6.999685 0 0 0 5.9355469 1.3125 A 6.999685 6.999685 0 0 0 5.7246094 1.3828125 A 6.999685 6.999685 0 0 0 5.515625 1.4570312 A 6.999685 6.999685 0 0 0 5.3085938 1.5410156 A 6.999685 6.999685 0 0 0 5.1054688 1.6289062 A 6.999685 6.999685 0 0 0 4.9042969 1.7246094 A 6.999685 6.999685 0 0 0 4.7070312 1.8261719 A 6.999685 6.999685 0 0 0 4.5117188 1.9335938 A 6.999685 6.999685 0 0 0 4.3203125 2.046875 A 6.999685 6.999685 0 0 0 4.1328125 2.1679688 A 6.999685 6.999685 0 0 0 3.9492188 2.2929688 A 6.999685 6.999685 0 0 0 3.7695312 2.4257812 A 6.999685 6.999685 0 0 0 3.5957031 2.5625 A 6.999685 6.999685 0 0 0 3.4238281 2.7050781 A 6.999685 6.999685 0 0 0 3.2578125 2.8535156 A 6.999685 6.999685 0 0 0 3.0976562 3.0058594 A 6.999685 6.999685 0 0 0 2.9414062 3.1640625 A 6.999685 6.999685 0 0 0 2.7910156 3.328125 A 6.999685 6.999685 0 0 0 2.6445312 3.4960938 A 6.999685 6.999685 0 0 0 2.5039062 3.6679688 A 6.999685 6.999685 0 0 0 2.3691406 3.8457031 A 6.999685 6.999685 0 0 0 2.2402344 4.0273438 A 6.999685 6.999685 0 0 0 2.1152344 4.2109375 A 6.999685 6.999685 0 0 0 1.9980469 4.4003906 A 6.999685 6.999685 0 0 0 1.8867188 4.59375 A 6.999685 6.999685 0 0 0 1.78125 4.7890625 A 6.999685 6.999685 0 0 0 1.6835938 4.9882812 A 6.999685 6.999685 0 0 0 1.5898438 5.1914062 A 6.999685 6.999685 0 0 0 1.5039062 5.3964844 A 6.999685 6.999685 0 0 0 1.4257812 5.6035156 A 6.999685 6.999685 0 0 0 1.3515625 5.8144531 A 6.999685 6.999685 0 0 0 1.2851562 6.0253906 A 6.999685 6.999685 0 0 0 1.2265625 6.2402344 A 6.999685 6.999685 0 0 0 1.1738281 6.4570312 A 6.999685 6.999685 0 0 0 1.1289062 6.6738281 A 6.999685 6.999685 0 0 0 1.0898438 6.8945312 A 6.999685 6.999685 0 0 0 1.0585938 7.1132812 A 6.999685 6.999685 0 0 0 1.0332031 7.3339844 A 6.999685 6.999685 0 0 0 1.015625 7.5566406 A 6.999685 6.999685 0 0 0 1.0058594 7.7792969 A 6.999685 6.999685 0 0 0 1.0019531 8.0019531 A 6.999685 6.999685 0 0 0 1.0019531 8.0957031 A 6.999685 6.999685 0 0 0 1.0078125 8.3183594 A 6.999685 6.999685 0 0 0 1.0214844 8.5390625 A 6.999685 6.999685 0 0 0 1.0429688 8.7617188 A 6.999685 6.999685 0 0 0 1.0703125 8.9824219 A 6.999685 6.999685 0 0 0 1.1054688 9.2011719 A 6.999685 6.999685 0 0 0 1.1464844 9.4199219 A 6.999685 6.999685 0 0 0 1.1953125 9.6367188 A 6.999685 6.999685 0 0 0 1.25 9.8535156 A 6.999685 6.999685 0 0 0 1.3125 10.066406 A 6.999685 6.999685 0 0 0 1.3828125 10.277344 A 6.999685 6.999685 0 0 0 1.4570312 10.486328 A 6.999685 6.999685 0 0 0 1.5410156 10.693359 A 6.999685 6.999685 0 0 0 1.6289062 10.898438 A 6.999685 6.999685 0 0 0 1.7246094 11.097656 A 6.999685 6.999685 0 0 0 1.8261719 11.296875 A 6.999685 6.999685 0 0 0 1.9335938 11.490234 A 6.999685 6.999685 0 0 0 2.046875 11.681641 A 6.999685 6.999685 0 0 0 2.1679688 11.869141 A 6.999685 6.999685 0 0 0 2.2929688 12.052734 A 6.999685 6.999685 0 0 0 2.4257812 12.232422 A 6.999685 6.999685 0 0 0 2.5625 12.408203 A 6.999685 6.999685 0 0 0 2.7050781 12.578125 A 6.999685 6.999685 0 0 0 2.8535156 12.744141 A 6.999685 6.999685 0 0 0 3.0058594 12.904297 A 6.999685 6.999685 0 0 0 3.1640625 13.060547 A 6.999685 6.999685 0 0 0 3.328125 13.212891 A 6.999685 6.999685 0 0 0 3.4960938 13.357422 A 6.999685 6.999685 0 0 0 3.6679688 13.498047 A 6.999685 6.999685 0 0 0 3.8457031 13.632812 A 6.999685 6.999685 0 0 0 4.0273438 13.763672 A 6.999685 6.999685 0 0 0 4.2109375 13.886719 A 6.999685 6.999685 0 0 0 4.4003906 14.003906 A 6.999685 6.999685 0 0 0 4.59375 14.115234 A 6.999685 6.999685 0 0 0 4.7890625 14.220703 A 6.999685 6.999685 0 0 0 4.9882812 14.320312 A 6.999685 6.999685 0 0 0 5.1914062 14.412109 A 6.999685 6.999685 0 0 0 5.3964844 14.498047 A 6.999685 6.999685 0 0 0 5.6035156 14.578125 A 6.999685 6.999685 0 0 0 5.8144531 14.650391 A 6.999685 6.999685 0 0 0 6.0253906 14.716797 A 6.999685 6.999685 0 0 0 6.2402344 14.775391 A 6.999685 6.999685 0 0 0 6.4570312 14.828125 A 6.999685 6.999685 0 0 0 6.6738281 14.875 A 6.999685 6.999685 0 0 0 6.8945312 14.912109 A 6.999685 6.999685 0 0 0 7.1132812 14.945312 A 6.999685 6.999685 0 0 0 7.3339844 14.96875 A 6.999685 6.999685 0 0 0 7.5566406 14.986328 A 6.999685 6.999685 0 0 0 7.7792969 14.998047 A 6.999685 6.999685 0 0 0 8.0019531 15 L 8.0957031 15 A 6.999685 6.999685 0 0 0 8.3183594 14.994141 A 6.999685 6.999685 0 0 0 8.5390625 14.980469 A 6.999685 6.999685 0 0 0 8.7617188 14.958984 A 6.999685 6.999685 0 0 0 8.9824219 14.931641 A 6.999685 6.999685 0 0 0 9.2011719 14.896484 A 6.999685 6.999685 0 0 0 9.4199219 14.855469 A 6.999685 6.999685 0 0 0 9.6367188 14.806641 A 6.999685 6.999685 0 0 0 9.8535156 14.751953 A 6.999685 6.999685 0 0 0 10.066406 14.689453 A 6.999685 6.999685 0 0 0 10.277344 14.621094 A 6.999685 6.999685 0 0 0 10.486328 14.544922 A 6.999685 6.999685 0 0 0 10.693359 14.462891 A 6.999685 6.999685 0 0 0 10.898438 14.373047 A 6.999685 6.999685 0 0 0 11.097656 14.279297 A 6.999685 6.999685 0 0 0 11.296875 14.177734 A 6.999685 6.999685 0 0 0 11.490234 14.068359 A 6.999685 6.999685 0 0 0 11.681641 13.955078 A 6.999685 6.999685 0 0 0 11.869141 13.835938 A 6.999685 6.999685 0 0 0 12.052734 13.708984 A 6.999685 6.999685 0 0 0 12.193359 13.607422 L 6.5859375 8 L 15 8 L 15 7.9082031 z "
       style="fill:#ffffff;stroke:none;stroke-width:1.12819;stroke-linejoin:miter;stroke-miterlimit:4;stroke-dasharray:none;stroke-opacity:1;paint-order:markers stroke fill"
       id="path869" />
  </g>
</svg>
