<?xml version="1.0" encoding="UTF-8" standalone="no"?>
<svg
   version="1.1"
   id="svg21"
   sodipodi:docname="vkbotkit_icon_trblue.svg"
   inkscape:version="1.1 (c68e22c387, 2021-05-23)"
   width="1000"
   height="1000"
   inkscape:export-filename="D:\VKBotKit\img\logo512.png"
   inkscape:export-xdpi="49.150002"
   inkscape:export-ydpi="49.150002"
   xmlns:inkscape="http://www.inkscape.org/namespaces/inkscape"
   xmlns:sodipodi="http://sodipodi.sourceforge.net/DTD/sodipodi-0.dtd"
   xmlns="http://www.w3.org/2000/svg"
   xmlns:svg="http://www.w3.org/2000/svg">
  <defs
     id="defs25">
    <filter
       inkscape:menu="Color"
       inkscape:menu-tooltip="Colorize separately the three color channels"
       inkscape:label="Paint Channels"
       style="color-interpolation-filters:sRGB"
       id="filter389"
       x="0"
       y="0"
       width="1"
       height="1">
      <feColorMatrix
         type="saturate"
         values="0"
         result="result3"
         id="feColorMatrix355" />
      <feColorMatrix
         in="SourceGraphic"
         values="0 0 0 0 0 0 0 0 0 0 0 0 0 0 0 1 -0.5 -0.5 0 0 "
         result="colormatrix"
         id="feColorMatrix357" />
      <feFlood
         flood-color="rgb(68,0,134)"
         result="result1"
         flood-opacity="1"
         id="feFlood359" />
      <feComposite
         in2="colormatrix"
         operator="in"
         result="result2"
         id="feComposite361" />
      <feComposite
         in2="colormatrix"
         result="result12"
         operator="arithmetic"
         k2="1"
         k3="-0.5"
         id="feComposite363"
         k1="0"
         k4="0" />
      <feBlend
         in2="result3"
         mode="normal"
         in="result12"
         result="result6"
         id="feBlend365" />
      <feColorMatrix
         result="colormatrix"
         values="0 0 0 0 0 0 0 0 0 0 0 0 0 0 0 -0.5 1 -0.5 0 0 "
         in="SourceGraphic"
         id="feColorMatrix367" />
      <feFlood
         flood-color="rgb(254,63,0)"
         result="result4"
         flood-opacity="1"
         id="feFlood369" />
      <feComposite
         in2="colormatrix"
         operator="in"
         result="result5"
         id="feComposite371" />
      <feComposite
         in2="colormatrix"
         result="result13"
         operator="arithmetic"
         k2="1"
         k3="-0.5"
         id="feComposite373"
         k1="0"
         k4="0" />
      <feBlend
         in2="result6"
         in="result13"
         mode="normal"
         result="result9"
         id="feBlend375" />
      <feColorMatrix
         in="SourceGraphic"
         values="0 0 0 0 0 0 0 0 0 0 0 0 0 0 0 -0.5 -0.5 1 0 0 "
         result="colormatrix"
         id="feColorMatrix377" />
      <feFlood
         flood-color="rgb(255,204,0)"
         result="result7"
         flood-opacity="1"
         id="feFlood379" />
      <feComposite
         in2="colormatrix"
         operator="in"
         result="result8"
         id="feComposite381" />
      <feComposite
         in2="colormatrix"
         result="result14"
         operator="arithmetic"
         k2="1"
         k3="-0.5"
         id="feComposite383"
         k1="0"
         k4="0" />
      <feBlend
         in2="result9"
         mode="normal"
         in="result14"
         result="result10"
         id="feBlend385" />
      <feComposite
         in2="SourceGraphic"
         operator="in"
         result="result11"
         in="result10"
         id="feComposite387" />
    </filter>
    <filter
       inkscape:menu="Color"
       inkscape:menu-tooltip="Colorize separately the three color channels"
       inkscape:label="Paint Channels"
       style="color-interpolation-filters:sRGB"
       id="filter389-5"
       x="0"
       y="0"
       width="1"
       height="1">
      <feColorMatrix
         type="saturate"
         values="0"
         result="result3"
         id="feColorMatrix355-8" />
      <feColorMatrix
         in="SourceGraphic"
         values="0 0 0 0 0 0 0 0 0 0 0 0 0 0 0 1 -0.5 -0.5 0 0 "
         result="colormatrix"
         id="feColorMatrix357-7" />
      <feFlood
         flood-color="rgb(68,0,134)"
         result="result1"
         flood-opacity="1"
         id="feFlood359-1" />
      <feComposite
         in2="colormatrix"
         operator="in"
         result="result2"
         id="feComposite361-7" />
      <feComposite
         in2="colormatrix"
         result="result12"
         operator="arithmetic"
         k2="1"
         k3="-0.5"
         id="feComposite363-8"
         k1="0"
         k4="0" />
      <feBlend
         in2="result3"
         mode="normal"
         in="result12"
         result="result6"
         id="feBlend365-4" />
      <feColorMatrix
         result="colormatrix"
         values="0 0 0 0 0 0 0 0 0 0 0 0 0 0 0 -0.5 1 -0.5 0 0 "
         in="SourceGraphic"
         id="feColorMatrix367-4" />
      <feFlood
         flood-color="rgb(254,63,0)"
         result="result4"
         flood-opacity="1"
         id="feFlood369-0" />
      <feComposite
         in2="colormatrix"
         operator="in"
         result="result5"
         id="feComposite371-8" />
      <feComposite
         in2="colormatrix"
         result="result13"
         operator="arithmetic"
         k2="1"
         k3="-0.5"
         id="feComposite373-8"
         k1="0"
         k4="0" />
      <feBlend
         in2="result6"
         in="result13"
         mode="normal"
         result="result9"
         id="feBlend375-6" />
      <feColorMatrix
         in="SourceGraphic"
         values="0 0 0 0 0 0 0 0 0 0 0 0 0 0 0 -0.5 -0.5 1 0 0 "
         result="colormatrix"
         id="feColorMatrix377-5" />
      <feFlood
         flood-color="rgb(255,204,0)"
         result="result7"
         flood-opacity="1"
         id="feFlood379-1" />
      <feComposite
         in2="colormatrix"
         operator="in"
         result="result8"
         id="feComposite381-6" />
      <feComposite
         in2="colormatrix"
         result="result14"
         operator="arithmetic"
         k2="1"
         k3="-0.5"
         id="feComposite383-6"
         k1="0"
         k4="0" />
      <feBlend
         in2="result9"
         mode="normal"
         in="result14"
         result="result10"
         id="feBlend385-9" />
      <feComposite
         in2="SourceGraphic"
         operator="in"
         result="result11"
         in="result10"
         id="feComposite387-4" />
    </filter>
    <filter
       inkscape:menu="Color"
       inkscape:menu-tooltip="Colorize separately the three color channels"
       inkscape:label="Paint Channels"
       style="color-interpolation-filters:sRGB"
       id="filter389-7"
       x="0"
       y="0"
       width="1"
       height="1">
      <feColorMatrix
         type="saturate"
         values="0"
         result="result3"
         id="feColorMatrix355-9" />
      <feColorMatrix
         in="SourceGraphic"
         values="0 0 0 0 0 0 0 0 0 0 0 0 0 0 0 1 -0.5 -0.5 0 0 "
         result="colormatrix"
         id="feColorMatrix357-1" />
      <feFlood
         flood-color="rgb(68,0,134)"
         result="result1"
         flood-opacity="1"
         id="feFlood359-6" />
      <feComposite
         in2="colormatrix"
         operator="in"
         result="result2"
         id="feComposite361-2" />
      <feComposite
         in2="colormatrix"
         result="result12"
         operator="arithmetic"
         k2="1"
         k3="-0.5"
         id="feComposite363-0"
         k1="0"
         k4="0" />
      <feBlend
         in2="result3"
         mode="normal"
         in="result12"
         result="result6"
         id="feBlend365-1" />
      <feColorMatrix
         result="colormatrix"
         values="0 0 0 0 0 0 0 0 0 0 0 0 0 0 0 -0.5 1 -0.5 0 0 "
         in="SourceGraphic"
         id="feColorMatrix367-6" />
      <feFlood
         flood-color="rgb(254,63,0)"
         result="result4"
         flood-opacity="1"
         id="feFlood369-9" />
      <feComposite
         in2="colormatrix"
         operator="in"
         result="result5"
         id="feComposite371-6" />
      <feComposite
         in2="colormatrix"
         result="result13"
         operator="arithmetic"
         k2="1"
         k3="-0.5"
         id="feComposite373-3"
         k1="0"
         k4="0" />
      <feBlend
         in2="result6"
         in="result13"
         mode="normal"
         result="result9"
         id="feBlend375-9" />
      <feColorMatrix
         in="SourceGraphic"
         values="0 0 0 0 0 0 0 0 0 0 0 0 0 0 0 -0.5 -0.5 1 0 0 "
         result="colormatrix"
         id="feColorMatrix377-1" />
      <feFlood
         flood-color="rgb(255,204,0)"
         result="result7"
         flood-opacity="1"
         id="feFlood379-5" />
      <feComposite
         in2="colormatrix"
         operator="in"
         result="result8"
         id="feComposite381-3" />
      <feComposite
         in2="colormatrix"
         result="result14"
         operator="arithmetic"
         k2="1"
         k3="-0.5"
         id="feComposite383-1"
         k1="0"
         k4="0" />
      <feBlend
         in2="result9"
         mode="normal"
         in="result14"
         result="result10"
         id="feBlend385-5" />
      <feComposite
         in2="SourceGraphic"
         operator="in"
         result="result11"
         in="result10"
         id="feComposite387-7" />
    </filter>
    <filter
       inkscape:menu="Color"
       inkscape:menu-tooltip="Colorize separately the three color channels"
       inkscape:label="Paint Channels"
       style="color-interpolation-filters:sRGB"
       id="filter1952"
       x="0"
       y="0"
       width="1"
       height="1">
      <feColorMatrix
         type="saturate"
         values="0"
         result="result3"
         id="feColorMatrix1918" />
      <feColorMatrix
         in="SourceGraphic"
         values="0 0 0 0 0 0 0 0 0 0 0 0 0 0 0 1 -0.5 -0.5 0 0 "
         result="colormatrix"
         id="feColorMatrix1920" />
      <feFlood
         flood-color="rgb(68,0,134)"
         result="result1"
         flood-opacity="1"
         id="feFlood1922" />
      <feComposite
         in2="colormatrix"
         operator="in"
         result="result2"
         id="feComposite1924" />
      <feComposite
         in2="colormatrix"
         result="result12"
         operator="arithmetic"
         k2="1"
         k3="-0.5"
         id="feComposite1926"
         k1="0"
         k4="0" />
      <feBlend
         in2="result3"
         mode="normal"
         in="result12"
         result="result6"
         id="feBlend1928" />
      <feColorMatrix
         result="colormatrix"
         values="0 0 0 0 0 0 0 0 0 0 0 0 0 0 0 -0.5 1 -0.5 0 0 "
         in="SourceGraphic"
         id="feColorMatrix1930" />
      <feFlood
         flood-color="rgb(254,63,0)"
         result="result4"
         flood-opacity="1"
         id="feFlood1932" />
      <feComposite
         in2="colormatrix"
         operator="in"
         result="result5"
         id="feComposite1934" />
      <feComposite
         in2="colormatrix"
         result="result13"
         operator="arithmetic"
         k2="1"
         k3="-0.5"
         id="feComposite1936"
         k1="0"
         k4="0" />
      <feBlend
         in2="result6"
         in="result13"
         mode="normal"
         result="result9"
         id="feBlend1938" />
      <feColorMatrix
         in="SourceGraphic"
         values="0 0 0 0 0 0 0 0 0 0 0 0 0 0 0 -0.5 -0.5 1 0 0 "
         result="colormatrix"
         id="feColorMatrix1940" />
      <feFlood
         flood-color="rgb(255,204,0)"
         result="result7"
         flood-opacity="1"
         id="feFlood1942" />
      <feComposite
         in2="colormatrix"
         operator="in"
         result="result8"
         id="feComposite1944" />
      <feComposite
         in2="colormatrix"
         result="result14"
         operator="arithmetic"
         k2="1"
         k3="-0.5"
         id="feComposite1946"
         k1="0"
         k4="0" />
      <feBlend
         in2="result9"
         mode="normal"
         in="result14"
         result="result10"
         id="feBlend1948" />
      <feComposite
         in2="SourceGraphic"
         operator="in"
         result="result11"
         in="result10"
         id="feComposite1950" />
    </filter>
    <filter
       inkscape:menu="Color"
       inkscape:menu-tooltip="Colorize separately the three color channels"
       inkscape:label="Paint Channels"
       style="color-interpolation-filters:sRGB"
       id="filter389-7-8"
       x="0"
       y="0"
       width="1"
       height="1">
      <feColorMatrix
         type="saturate"
         values="0"
         result="result3"
         id="feColorMatrix355-9-5" />
      <feColorMatrix
         in="SourceGraphic"
         values="0 0 0 0 0 0 0 0 0 0 0 0 0 0 0 1 -0.5 -0.5 0 0 "
         result="colormatrix"
         id="feColorMatrix357-1-8" />
      <feFlood
         flood-color="rgb(68,0,134)"
         result="result1"
         flood-opacity="1"
         id="feFlood359-6-9" />
      <feComposite
         in2="colormatrix"
         operator="in"
         result="result2"
         id="feComposite361-2-9" />
      <feComposite
         in2="colormatrix"
         result="result12"
         operator="arithmetic"
         k2="1"
         k3="-0.5"
         id="feComposite363-0-9"
         k1="0"
         k4="0" />
      <feBlend
         in2="result3"
         mode="normal"
         in="result12"
         result="result6"
         id="feBlend365-1-1" />
      <feColorMatrix
         result="colormatrix"
         values="0 0 0 0 0 0 0 0 0 0 0 0 0 0 0 -0.5 1 -0.5 0 0 "
         in="SourceGraphic"
         id="feColorMatrix367-6-5" />
      <feFlood
         flood-color="rgb(254,63,0)"
         result="result4"
         flood-opacity="1"
         id="feFlood369-9-4" />
      <feComposite
         in2="colormatrix"
         operator="in"
         result="result5"
         id="feComposite371-6-9" />
      <feComposite
         in2="colormatrix"
         result="result13"
         operator="arithmetic"
         k2="1"
         k3="-0.5"
         id="feComposite373-3-8"
         k1="0"
         k4="0" />
      <feBlend
         in2="result6"
         in="result13"
         mode="normal"
         result="result9"
         id="feBlend375-9-9" />
      <feColorMatrix
         in="SourceGraphic"
         values="0 0 0 0 0 0 0 0 0 0 0 0 0 0 0 -0.5 -0.5 1 0 0 "
         result="colormatrix"
         id="feColorMatrix377-1-8" />
      <feFlood
         flood-color="rgb(255,204,0)"
         result="result7"
         flood-opacity="1"
         id="feFlood379-5-5" />
      <feComposite
         in2="colormatrix"
         operator="in"
         result="result8"
         id="feComposite381-3-2" />
      <feComposite
         in2="colormatrix"
         result="result14"
         operator="arithmetic"
         k2="1"
         k3="-0.5"
         id="feComposite383-1-4"
         k1="0"
         k4="0" />
      <feBlend
         in2="result9"
         mode="normal"
         in="result14"
         result="result10"
         id="feBlend385-5-5" />
      <feComposite
         in2="SourceGraphic"
         operator="in"
         result="result11"
         in="result10"
         id="feComposite387-7-5" />
    </filter>
  </defs>
  <sodipodi:namedview
     id="namedview23"
     pagecolor="#505050"
     bordercolor="#eeeeee"
     borderopacity="1"
     inkscape:pageshadow="0"
     inkscape:pageopacity="0"
     inkscape:pagecheckerboard="0"
     showgrid="false"
     inkscape:snap-bbox="true"
     inkscape:snap-bbox-edge-midpoints="true"
     inkscape:zoom="0.25"
     inkscape:cx="356"
     inkscape:cy="342"
     inkscape:window-width="1366"
     inkscape:window-height="697"
     inkscape:window-x="-8"
     inkscape:window-y="-8"
     inkscape:window-maximized="1"
     inkscape:current-layer="svg21"
     height="1280px"
     width="1920px"
     inkscape:snap-bbox-midpoints="true"
     inkscape:bbox-paths="true"
     inkscape:bbox-nodes="true" />
  <rect
     style="fill:none;stroke-width:8.54175;stroke-linecap:round;stroke-linejoin:round"
     id="rect1757"
     width="1080"
     height="1080"
     x="1728"
     y="3192"
     ry="0"
     inkscape:export-filename="C:\Users\proko\Desktop\testcanarybot-logo\transparent-v.png"
     inkscape:export-xdpi="96"
     inkscape:export-ydpi="96" />
  <path
     id="path912"
     style="fill:#0077ff;stroke-width:27.6617;stroke-linecap:round;stroke-linejoin:bevel;paint-order:markers fill stroke;fill-opacity:1"
     d="m 406.24911,226.7608 v 0.0642 c -0.26465,0.006 -0.51374,-0.0578 -0.78002,-0.0439 a 15.561315,15.561315 0 0 0 -0.003,0 c -14.61917,0.73751 -25.63507,13.6731 -24.96045,27.9218 v 0.003 0.003 c 1.66784,35.32293 24.9104,59.88499 41.55685,76.76889 a 15.561315,15.561315 0 0 0 0.003,0.003 c 10.14272,10.28016 27.64346,10.08709 37.56225,-0.39842 a 15.561315,15.561315 0 0 0 0,-0.003 c 9.91627,-10.4838 9.75588,-27.04175 -0.37817,-37.32587 a 15.561315,15.561315 0 0 0 -0.003,-0.003 c -14.7397,-14.95013 -25.70579,-30.94226 -26.2098,-41.59736 v -0.003 c -0.65623,-13.92462 -12.42848,-25.48631 -26.60828,-25.315 a 15.561315,15.561315 0 0 0 -0.17889,-0.0743 z m 188.28051,0.0203 c -14.61382,-0.73433 -26.89595,11.12532 -27.56724,25.36902 -0.50209,10.65149 -11.47388,26.64783 -26.21658,41.60073 a 15.561315,15.561315 0 0 0 -0.003,0.003 c -10.13565,10.28609 -10.29192,26.84989 -0.37142,37.33262 9.92114,10.48336 27.42183,10.67732 37.56222,0.39505 a 15.561315,15.561315 0 0 0 0,-0.003 c 16.64549,-16.88311 39.89223,-41.44478 41.56024,-76.76892 v -0.003 c 0.67616,-14.25046 -10.34051,-27.188 -24.96083,-27.92559 a 15.561315,15.561315 0 0 0 -0.003,0 z M 250.5367,353.42358 c -4.6009,-0.34345 -9.2173,0.57653 -13.32102,2.63041 -12.78412,6.39513 -17.85435,21.94773 -11.9028,34.68191 a 15.561315,15.561315 0 0 0 0.003,0 c 9.26839,19.8263 23.52794,60.83249 63.33982,72.60884 14.12304,4.17734 26.48801,1.08514 29.72495,0.70575 10.0496,7.38638 24.85977,6.56462 33.73646,-2.6237 9.84692,-10.18974 9.84568,-26.44315 0,-36.63363 -12.60016,-13.04525 -29.14558,-13.86995 -38.93992,-12.82465 -7.7932,0.83163 -12.08171,0.52713 -10.06251,1.12443 -3.35185,-0.99147 -9.19557,-5.75979 -14.93509,-14.26986 -5.73953,-8.51008 -11.22107,-19.8294 -16.21821,-30.51848 -2.89336,-6.18516 -8.1367,-11.09269 -14.68858,-13.44932 a 15.561315,15.561315 0 0 0 -0.0165,-0.007 c -2.15628,-0.77315 -4.41157,-1.24992 -6.70272,-1.4216 l 0.003,-0.003 c -0.006,-3.3e-4 -0.009,3.5e-4 -0.0129,0 h -0.003 a 15.561315,15.561315 0 0 0 -0.003,0 z m 498.89829,0 0.003,0.003 c -2.28938,0.17228 -4.54479,0.65222 -6.69936,1.42497 a 15.561315,15.561315 0 0 0 -0.0129,0.003 c -6.55184,2.35662 -11.79523,7.26077 -14.68857,13.44594 a 15.561315,15.561315 0 0 0 0,0.003 c -4.99708,10.68902 -10.47861,22.00837 -16.21821,30.51849 -5.73959,8.5101 -11.58353,13.27845 -14.93506,14.26984 2.02051,-0.59763 -2.27372,-0.29282 -10.06591,-1.12443 -9.7945,-1.04529 -26.33982,-0.22064 -38.93993,12.82465 -9.84568,10.1905 -9.84693,26.44391 0,36.63362 8.87721,9.18888 23.68684,10.00812 33.73647,2.62034 3.23384,0.3785 15.60043,3.47567 29.72494,-0.70236 39.81192,-11.77634 54.07122,-52.77953 63.33983,-72.60546 5.95275,-12.73204 0.88809,-28.28362 -11.89267,-34.6819 a 15.561315,15.561315 0 0 0 0,-0.003 c -4.10729,-2.05593 -8.7296,-2.97616 -13.33453,-2.63045 -10e-4,1.9e-4 -0.003,-1.6e-4 -0.008,0 -0.003,2.8e-4 -0.007,-2.5e-4 -0.009,0 z m -249.50655,16.9982 c -27.14374,0.0507 -49.89856,4.77446 -68.51289,15.18834 -18.77403,10.50304 -31.97669,26.61618 -39.94956,44.52495 -15.69172,35.24727 -14.41168,75.73058 -14.41168,117.02234 0,46.11984 11.77552,88.38384 32.58499,120.69958 20.87864,32.42441 52.76237,56.03607 90.3398,56.03607 37.57776,0 69.46068,-23.61207 90.3398,-56.03607 20.80961,-32.31577 32.58499,-74.57976 32.58499,-120.69958 0,-41.34617 1.13949,-81.9286 -14.60753,-117.18444 -7.99882,-17.90895 -21.1979,-34.02625 -39.96304,-44.51819 -18.60733,-10.40433 -41.34611,-15.08624 -68.40488,-15.033 z m -246.42363,7.13832 h 0.003 c 9.7e-4,0.001 -0.001,0.003 0,0.008 -0.001,-0.001 -0.001,-0.003 -0.003,-0.008 z m -5.26425,6.88504 -0.007,0.007 c -0.003,-2.5e-4 -0.007,2.4e-4 -0.009,0 a 15.561315,15.561315 0 0 0 0.0165,-0.007 z m 503.52436,0.003 a 15.561315,15.561315 0 0 0 0.0129,0.003 v 0.003 c -0.003,0 -0.007,-0.003 -0.009,-0.003 z m -251.73517,39.32488 a 15.561315,15.561315 0 0 0 0.003,0 c 20.99842,-0.039 34.44205,3.66743 42.91427,8.40456 8.68435,4.85558 13.17177,10.21935 17.45746,19.81438 8.24703,18.46423 9.91058,53.92399 9.91058,95.16509 0,36.6965 -9.9138,69.60934 -24.02173,91.51825 -14.18992,22.03616 -30.49069,31.86577 -46.31124,31.86577 -15.82085,0 -32.12129,-9.82956 -46.31121,-31.86577 -14.10767,-21.90909 -24.02172,-54.82186 -24.02172,-91.51825 0,-41.29081 1.56869,-76.68329 9.74847,-95.05705 4.2555,-9.55807 8.70015,-14.89362 17.4237,-19.77385 8.50859,-4.76031 22.06247,-8.51511 43.20804,-8.55313 z m -324.84373,59.56185 c -4.70772,0.20216 -9.26817,1.69258 -13.17584,4.25801 -12.14205,7.96883 -15.55182,24.23357 -8.04664,36.48169 1.4318,2.33938 4.53624,13.24289 15.08365,24.84563 9.79879,10.77823 24.12277,22.49415 42.35373,27.21272 29.83315,7.72164 62.21138,6.72719 85.90962,7.74948 a 15.561315,15.561315 0 0 0 0.003,0 c 14.6207,0.62962 26.81495,-11.31507 27.38828,-25.5649 a 15.561315,15.561315 0 0 0 0,-0.003 c 0.56897,-14.24774 -10.53834,-27.10244 -25.15629,-27.73271 h -0.003 c -25.68952,-1.10806 -54.89553,-1.29866 -73.8717,-5.91933 -0.5128,-0.20118 -1.37894,-0.53002 -2.15772,-0.97921 -1.74232,-1.00503 -4.09569,-2.47608 -6.43932,-4.03517 -4.68732,-3.11816 -10.4579,-8.1056 -9.36354,-6.90192 -1.0272,-1.12984 -1.27593,-1.5899 -2.51563,-4.23436 -1.23949,-2.64391 -3.18357,-7.09462 -6.55415,-12.59842 v -0.003 c -3.64662,-5.95348 -9.56338,-10.32441 -16.48837,-11.92644 -2.27707,-0.52766 -4.61752,-0.74758 -6.95598,-0.64833 a 15.561315,15.561315 0 0 0 -0.009,0 z m 649.61656,0 c -2.33844,-0.0991 -4.67887,0.1208 -6.95598,0.64832 -6.92585,1.60225 -12.84182,5.97518 -16.48832,11.92984 -3.37046,5.5036 -5.31458,9.95436 -6.55415,12.59839 -1.23985,2.64459 -1.48843,3.10438 -2.51564,4.23438 1.09431,-1.20368 -4.67623,3.78377 -9.36352,6.90193 -2.34367,1.55909 -4.69702,3.03014 -6.43934,4.03514 -0.77877,0.44919 -1.64492,0.77805 -2.15771,0.97923 -18.9764,4.62078 -48.18521,4.81114 -73.87509,5.91934 -14.61796,0.63025 -25.72529,13.48494 -25.15631,27.73269 a 15.561315,15.561315 0 0 0 0,0.003 c 0.57336,14.24983 12.76756,26.19451 27.3883,25.56489 a 15.561315,15.561315 0 0 0 0.003,0 c 23.69883,-1.02227 56.07681,-0.028 85.90961,-7.74949 18.23151,-4.71869 32.553,-16.43536 42.35035,-27.2127 10.54612,-11.60053 13.6531,-22.50185 15.08702,-24.84565 l 0.003,-0.003 c 7.50208,-12.24765 4.0908,-28.51032 -8.05,-36.4783 l -0.003,-0.003 c -3.90682,-2.56392 -8.46627,-4.05252 -13.17243,-4.25463 a 15.561315,15.561315 0 0 0 -0.009,0 z M 330.18594,634.50968 c -1.08293,0.0454 -2.16688,0.1379 -3.25176,0.27353 -12.94215,1.61743 -24.22217,8.49777 -38.89602,19.56449 -33.8399,25.52152 -50.7406,63.11331 -55.381,89.68474 -2.2889,13.08983 6.28906,26.29873 19.7266,28.81325 a 15.561315,15.561315 0 0 0 0.003,0.003 c 13.43327,2.51167 26.36897,-7.0526 28.65455,-20.13853 1.87712,-10.75037 16.55879,-43.51413 36.35002,-58.44027 6.08129,-4.58659 9.95708,-6.84049 12.69632,-8.25262 2.83928,1.842 6.77042,3.87629 11.48411,4.85228 a 15.561315,15.561315 0 0 0 0.003,0.003 c 13.37863,2.76481 26.5053,-6.56205 29.02597,-19.60503 2.21816,-11.47452 -3.96467,-23.16777 -14.58728,-27.70906 -2.21405,-1.84142 -7.73375,-6.38806 -16.26211,-8.22898 -3.05213,-0.65855 -6.29794,-0.95764 -9.56613,-0.82055 z m 339.62686,0 c -3.26772,-0.13716 -6.51255,0.16144 -9.56615,0.82054 -8.53178,1.84149 -14.05388,6.39296 -16.26548,8.23237 -10.62083,4.54308 -16.80266,16.23254 -14.5839,27.70568 2.52066,13.04299 15.64731,22.36986 29.02595,19.60504 a 15.561315,15.561315 0 0 0 0.003,-0.003 c 4.71448,-0.97622 8.64838,-3.00957 11.48748,-4.85229 2.73983,1.41246 6.61323,3.66757 12.69295,8.25262 19.79106,14.92609 34.4724,47.68896 36.35001,58.44027 2.28575,13.082 15.2141,22.64438 28.64439,20.13854 a 15.561315,15.561315 0 0 0 0.009,-0.003 c 13.4375,-2.51454 22.01548,-15.72344 19.72659,-28.81326 v -0.003 C 762.69623,717.4598 745.798,679.86964 711.95902,654.34882 697.28519,643.28209 686.00511,636.40175 673.063,634.78432 c -1.08489,-0.1355 -2.16884,-0.22821 -3.25175,-0.27351 z m -320.13666,7.35106 c 1.15853,0.0921 1.46061,0.18691 1.68162,0.22961 0.44197,0.0856 0.28112,0.0561 0.0573,0.009 a 15.561315,15.561315 0 0 0 -10.68047,2.15432 c 1.33658,-0.79883 2.67491,-1.60076 2.67435,-1.60055 -10e-4,3.8e-4 2.495,-0.65176 3.30241,-0.74289 1.61476,-0.18238 2.38546,-0.0965 2.96473,-0.0507 z m 300.63631,0.003 c 0.58131,-0.0466 1.35714,-0.13588 2.99174,0.0507 0.81731,0.0932 3.35078,0.76352 3.34967,0.76311 -5.1e-4,-1.7e-4 1.29189,0.78913 2.56628,1.56679 a 15.561315,15.561315 0 0 0 -10.63655,-2.14418 c -0.22542,0.0466 -0.39172,0.0756 0.0472,-0.009 0.21955,-0.0425 0.51895,-0.13329 1.68158,-0.22623 z m -310.87441,3.16396 a 15.561315,15.561315 0 0 0 -5.6188,8.33364 c -0.0349,-0.003 -0.0702,-0.007 -0.10466,-0.009 0.7804,-1.38132 4.17755,-7.3989 4.17696,-7.39831 -1.6e-4,1.5e-4 0.92232,-0.55217 1.54652,-0.92523 z m 321.15979,0.0574 c 0.69278,0.4227 1.6615,1.01316 1.66131,1.013 -5.4e-4,-5.2e-4 2.98723,5.51306 3.93384,7.25986 -0.003,0 -0.007,0.003 -0.009,0.003 a 15.561315,15.561315 0 0 0 -5.58503,-8.27624 z m 0.79688,24.30537 c -0.003,10e-4 -0.0165,0.0186 -0.0203,0.0202 -0.63238,0.51361 -0.61425,0.47073 -0.58417,0.44911 0.0283,-0.0204 0.47078,-0.37114 0.60444,-0.46935 z m -2.35693,0.30389 c -0.87719,1.3813 -2.29078,2.49322 -4.1398,2.87693 a 15.561315,15.561315 0 0 0 4.1398,-2.87693 z m -318.07348,0.003 a 15.561315,15.561315 0 0 0 4.13644,2.87356 c -1.8495,-0.38308 -3.25871,-1.49216 -4.13644,-2.87356 z" />
</svg>
